<?xml version="1.0" encoding="utf-8"?>
<!-- Generator: Adobe Illustrator 16.0.0, SVG Export Plug-In . SVG Version: 6.00 Build 0)  -->
<!DOCTYPE svg PUBLIC "-//W3C//DTD SVG 1.1//EN" "http://www.w3.org/Graphics/SVG/1.1/DTD/svg11.dtd">
<svg version="1.1" id="Layer_1" xmlns="http://www.w3.org/2000/svg" xmlns:xlink="http://www.w3.org/1999/xlink" x="0px" y="0px"
	 width="15px" height="15px" viewBox="0 0 15 15" enable-background="new 0 0 15 15" xml:space="preserve">
<g>
	<g>
		<path fill-rule="evenodd" clip-rule="evenodd" fill="#FFFFFF" d="M0.189,14.998h3.216V4.878H0.189V14.998z M1.819,0
			C0.719,0,0,0.755,0,1.748C0,2.72,0.697,3.497,1.776,3.497h0.021c1.121,0,1.819-0.777,1.819-1.749C3.596,0.755,2.919,0,1.819,0z
			 M11.299,4.64C9.59,4.64,8.827,5.623,8.4,6.312v0.033H8.379C8.386,6.335,8.394,6.323,8.4,6.312V4.878H5.185
			c0.042,0.95,0,10.12,0,10.12H8.4V9.346c0-0.302,0.021-0.604,0.105-0.82c0.232-0.604,0.762-1.229,1.65-1.229
			c1.164,0,1.629,0.928,1.629,2.288v5.414h3.216V9.195C15.001,6.087,13.414,4.64,11.299,4.64z"/>
	</g>
</g>
</svg>
